<?xml version="1.0" standalone="no"?>
<!DOCTYPE svg PUBLIC "-//W3C//DTD SVG 20010904//EN"
 "http://www.w3.org/TR/2001/REC-SVG-20010904/DTD/svg10.dtd">
<svg version="1.0" xmlns="http://www.w3.org/2000/svg"
 width="512.000000pt" height="512.000000pt" viewBox="0 0 512.000000 512.000000"
 preserveAspectRatio="xMidYMid meet">
<metadata>
Created by potrace 1.14, written by Peter Selinger 2001-2017
</metadata>
<g transform="translate(0.000000,512.000000) scale(0.100000,-0.100000)"
fill="#000000" stroke="none">
<path d="M1005 4949 c-46 -26 -45 -8 -45 -696 l0 -653 40 0 40 0 0 -94 0 -95
-32 10 c-112 33 -237 17 -351 -43 -54 -29 -217 -178 -217 -198 0 -5 -7 -15
-15 -24 -8 -8 -34 -49 -56 -91 -34 -62 -39 -79 -28 -86 8 -5 19 -9 24 -9 31 0
31 -23 1 -96 -23 -58 -34 -73 -46 -68 -8 4 -26 7 -39 8 -27 1 -33 -16 -72
-194 -36 -168 -47 -285 -44 -490 3 -190 6 -230 25 -335 5 -27 12 -66 15 -85
24 -145 111 -372 200 -519 52 -87 189 -221 258 -252 l25 -11 -18 -42 c-10 -23
-21 -61 -25 -84 -7 -42 -13 -49 -31 -33 -18 16 -99 30 -161 27 -127 -8 -236
-94 -276 -221 -17 -52 -25 -307 -11 -359 15 -60 -149 -56 2394 -56 2542 0
2381 -4 2396 55 3 13 4 95 2 182 -3 147 -5 162 -30 215 -70 149 -229 219 -385
170 -35 -11 -64 -16 -64 -11 -1 5 -2 12 -3 17 -1 4 -5 25 -10 47 -4 21 -14 51
-21 65 -13 25 -12 27 33 50 98 52 222 202 305 366 77 153 143 396 166 614 8
82 7 454 -2 495 -2 11 -8 42 -11 68 -4 27 -9 59 -12 70 -2 12 -7 36 -9 52 -10
56 -46 180 -72 250 -69 184 -149 315 -257 418 -107 104 -206 149 -334 153
-110 3 -201 -26 -289 -92 -17 -13 -34 -24 -37 -24 -3 0 -6 45 -6 100 l0 100
40 0 40 0 0 125 c0 72 -5 135 -11 149 -8 17 -83 71 -217 156 l-205 131 -26
-31 -26 -31 -67 46 c-37 25 -72 45 -78 45 -15 0 -12 12 10 40 11 14 20 28 20
32 0 7 -160 115 -186 125 -11 4 -14 63 -16 309 -3 276 -5 305 -21 321 -17 17
-76 18 -1085 20 -762 2 -1073 -1 -1087 -8z"/>
</g>
</svg>
